<?xml version="1.0" standalone="no"?>
<!DOCTYPE svg PUBLIC "-//W3C//DTD SVG 20010904//EN"
 "http://www.w3.org/TR/2001/REC-SVG-20010904/DTD/svg10.dtd">
<svg version="1.0" xmlns="http://www.w3.org/2000/svg"
 width="256.000000pt" height="256.000000pt" viewBox="0 0 256.000000 256.000000"
 preserveAspectRatio="xMidYMid meet">

<g transform="translate(0.000000,256.000000) scale(0.100000,-0.100000)"
fill="#000000" stroke="none">
<path d="M605 2546 c-132 -33 -241 -124 -303 -253 l-37 -78 -6 -340 c-7 -421
-10 -433 -143 -600 l-56 -70 91 -3 c50 -1 116 2 147 8 92 17 196 72 261 138
65 67 114 152 92 160 -29 10 -72 59 -85 96 -22 63 4 136 61 173 23 16 63 19
298 24 300 7 314 10 495 87 126 53 175 62 341 62 l139 0 -6 28 c-4 15 -15 49
-26 76 -58 149 -222 284 -403 331 -81 21 -232 20 -319 -2 l-70 -18 -60 61
c-113 112 -264 156 -411 120z"/>
</g>
</svg>
